ffmpeg started on 2016-11-30 at 08:01:10
Report written to "Output/x264/results/ffmpeg/old_town_cross_2160p50faster9000k.log"
Command line:
Tools/ffmpeg/ffmpeg -benchmark -y -i Input/y4m/old_town_cross_2160p50.y4m -c:v libx264 -preset faster -b:v 9000k -an Output/x264/encoded/old_town_cross_2160p50faster9000k.mkv
ffmpeg version N-82227-gdb23fde Copyright (c) 2000-2016 the FFmpeg developers
  built with gcc 5.4.0 (Ubuntu 5.4.0-6ubuntu1~16.04.2) 20160609
  configuration: --prefix=/home/jaroslav/ffmpeg_build --pkg-config-flags=--static --extra-cflags=-I/home/jaroslav/ffmpeg_build/include --extra-ldflags=-L/home/jaroslav/ffmpeg_build/lib --bindir=/home/jaroslav/bin --enable-gpl --enable-libass --enable-libfdk-aac --enable-libfreetype --enable-libmp3lame --enable-libopus --enable-libtheora --enable-libvorbis --enable-libvpx --enable-libx264 --enable-libx265 --enable-nvenc --enable-libmfx --enable-libxvid --enable-libgsm --enable-libopencore-amrnb --enable-version3 --enable-nonfree
  libavutil      55. 35.100 / 55. 35.100
  libavcodec     57. 66.101 / 57. 66.101
  libavformat    57. 57.100 / 57. 57.100
  libavdevice    57.  2.100 / 57.  2.100
  libavfilter     6. 66.100 /  6. 66.100
  libswscale      4.  3.100 /  4.  3.100
  libswresample   2.  4.100 /  2.  4.100
  libpostproc    54.  2.100 / 54.  2.100
Input #0, yuv4mpegpipe, from 'Input/y4m/old_town_cross_2160p50.y4m':
  Duration: 00:00:10.00, start: 0.000000, bitrate: 4976642 kb/s
    Stream #0:0: Video: rawvideo (I420 / 0x30323449), yuv420p(progressive), 3840x2160, SAR 1:1 DAR 16:9, 50 fps, 50 tbr, 50 tbn, 50 tbc
[libx264 @ 0x44b2120] using SAR=1/1
[libx264 @ 0x44b2120] using cpu capabilities: MMX2 SSE2Fast SSSE3 SSE4.2 AVX FMA3 AVX2 LZCNT BMI2
[libx264 @ 0x44b2120] profile High, level 5.2
[libx264 @ 0x44b2120] 264 - core 148 - H.264/MPEG-4 AVC codec - Copyleft 2003-2016 - http://www.videolan.org/x264.html - options: cabac=1 ref=2 deblock=1:0:0 analyse=0x3:0x113 me=hex subme=4 psy=1 psy_rd=1.00:0.00 mixed_ref=0 me_range=16 chroma_me=1 trellis=1 8x8dct=1 cqm=0 deadzone=21,11 fast_pskip=1 chroma_qp_offset=0 threads=6 lookahead_threads=1 sliced_threads=0 nr=0 decimate=1 interlaced=0 bluray_compat=0 constrained_intra=0 bframes=3 b_pyramid=2 b_adapt=1 b_bias=0 direct=1 weightb=1 open_gop=0 weightp=1 keyint=250 keyint_min=25 scenecut=40 intra_refresh=0 rc_lookahead=20 rc=abr mbtree=1 bitrate=9000 ratetol=1.0 qcomp=0.60 qpmin=0 qpmax=69 qpstep=4 ip_ratio=1.40 aq=1:1.00
Output #0, matroska, to 'Output/x264/encoded/old_town_cross_2160p50faster9000k.mkv':
  Metadata:
    encoder         : Lavf57.57.100
    Stream #0:0: Video: h264 (libx264) (H264 / 0x34363248), yuv420p, 3840x2160 [SAR 1:1 DAR 16:9], q=-1--1, 9000 kb/s, 50 fps, 1k tbn, 50 tbc
    Metadata:
      encoder         : Lavc57.66.101 libx264
    Side data:
      cpb: bitrate max/min/avg: 0/0/9000000 buffer size: 0 vbv_delay: -1
Stream mapping:
  Stream #0:0 -> #0:0 (rawvideo (native) -> h264 (libx264))
Press [q] to stop, [?] for help
frame=   27 fps= 21 q=0.0 size=       0kB time=00:00:00.00 bitrate=N/A speed=   0x    frame=   36 fps= 20 q=39.0 size=       1kB time=00:00:00.06 bitrate=  96.1kbits/s speed=0.0339x    frame=   47 fps= 20 q=37.0 size=       1kB time=00:00:00.28 bitrate=  20.9kbits/s speed=0.122x    frame=   56 fps= 19 q=35.0 size=       1kB time=00:00:00.46 bitrate=  12.7kbits/s speed=0.154x    frame=   67 fps= 19 q=34.0 size=       1kB time=00:00:00.68 bitrate=   8.6kbits/s speed=0.195x    frame=   76 fps= 18 q=34.0 size=       1kB time=00:00:00.86 bitrate=   6.8kbits/s speed=0.205x    frame=   87 fps= 19 q=34.0 size=       1kB time=00:00:01.08 bitrate=   5.4kbits/s speed=0.23x    frame=   96 fps= 18 q=34.0 size=       1kB time=00:00:01.26 bitrate=   4.7kbits/s speed=0.234x    frame=  107 fps= 18 q=34.0 size=       1kB time=00:00:01.48 bitrate=   4.0kbits/s speed=0.251x    frame=  116 fps= 18 q=34.0 size=       1kB time=00:00:01.66 bitrate=   3.5kbits/s speed=0.252x    frame=  128 fps= 18 q=33.0 size=       1kB time=00:00:01.90 bitrate=   3.1kbits/s speed=0.26x    frame=  139 fps= 18 q=33.0 size=       1kB time=00:00:02.12 bitrate=   2.8kbits/s speed=0.272x    frame=  148 fps= 17 q=33.0 size=       1kB time=00:00:02.30 bitrate=   2.5kbits/s speed=0.271x    frame=  159 fps= 18 q=33.0 size=       1kB time=00:00:02.52 bitrate=   2.3kbits/s speed=0.28x    frame=  168 fps= 17 q=33.0 size=       1kB time=00:00:02.70 bitrate=   2.2kbits/s speed=0.279x    frame=  179 fps= 18 q=33.0 size=       1kB time=00:00:02.92 bitrate=   2.0kbits/s speed=0.287x    frame=  188 fps= 17 q=33.0 size=       1kB time=00:00:03.10 bitrate=   1.9kbits/s speed=0.285x    frame=  199 fps= 17 q=33.0 size=       1kB time=00:00:03.32 bitrate=   1.8kbits/s speed=0.292x    frame=  208 fps= 17 q=33.0 size=       1kB time=00:00:03.50 bitrate=   1.7kbits/s speed=0.29x    frame=  219 fps= 17 q=33.0 size=       1kB time=00:00:03.72 bitrate=   1.6kbits/s speed=0.296x    frame=  228 fps= 17 q=33.0 size=       1kB time=00:00:03.90 bitrate=   1.5kbits/s speed=0.294x    frame=  239 fps= 17 q=33.0 size=       1kB time=00:00:04.12 bitrate=   1.4kbits/s speed=0.299x    frame=  242 fps= 17 q=33.0 size=       1kB time=00:00:04.18 bitrate=   1.4kbits/s speed=0.286x    frame=  245 fps= 16 q=33.0 size=       1kB time=00:00:04.24 bitrate=   1.4kbits/s speed=0.276x    frame=  250 fps= 16 q=34.0 size=       1kB time=00:00:04.34 bitrate=   1.4kbits/s speed=0.272x    frame=  255 fps= 15 q=34.0 size=       1kB time=00:00:04.44 bitrate=   1.3kbits/s speed=0.269x    frame=  260 fps= 15 q=34.0 size=       1kB time=00:00:04.54 bitrate=   1.3kbits/s speed=0.266x    frame=  265 fps= 15 q=34.0 size=       1kB time=00:00:04.64 bitrate=   1.3kbits/s speed=0.263x    frame=  270 fps= 15 q=34.0 size=    5122kB time=00:00:04.74 bitrate=8851.2kbits/s speed=0.26x    frame=  275 fps= 14 q=31.0 size=    5122kB time=00:00:04.84 bitrate=8668.3kbits/s speed=0.255x    frame=  285 fps= 15 q=35.0 size=    5392kB time=00:00:05.04 bitrate=8762.0kbits/s speed=0.259x    frame=  295 fps= 15 q=35.0 size=    5392kB time=00:00:05.24 bitrate=8427.6kbits/s speed=0.262x    frame=  305 fps= 15 q=35.0 size=    5392kB time=00:00:05.44 bitrate=8117.8kbits/s speed=0.263x    frame=  315 fps= 15 q=34.0 size=    5392kB time=00:00:05.64 bitrate=7830.0kbits/s speed=0.266x    frame=  325 fps= 15 q=34.0 size=    5392kB time=00:00:05.84 bitrate=7561.9kbits/s speed=0.267x    frame=  335 fps= 15 q=34.0 size=    5392kB time=00:00:06.04 bitrate=7311.5kbits/s speed=0.27x    frame=  345 fps= 15 q=34.0 size=    5392kB time=00:00:06.24 bitrate=7077.2kbits/s speed=0.27x    frame=  356 fps= 15 q=34.0 size=    5392kB time=00:00:06.46 bitrate=6836.3kbits/s speed=0.274x    frame=  365 fps= 15 q=34.0 size=    5392kB time=00:00:06.64 bitrate=6651.0kbits/s speed=0.273x    frame=  376 fps= 15 q=34.0 size=    5392kB time=00:00:06.86 bitrate=6437.7kbits/s speed=0.277x    frame=  385 fps= 15 q=34.0 size=    5392kB time=00:00:07.04 bitrate=6273.1kbits/s speed=0.276x    frame=  396 fps= 15 q=34.0 size=    5392kB time=00:00:07.26 bitrate=6083.0kbits/s speed=0.279x    frame=  405 fps= 15 q=34.0 size=    5392kB time=00:00:07.44 bitrate=5935.9kbits/s speed=0.279x    frame=  416 fps= 15 q=34.0 size=    5392kB time=00:00:07.66 bitrate=5765.4kbits/s speed=0.282x    frame=  425 fps= 15 q=34.0 size=    5392kB time=00:00:07.84 bitrate=5633.1kbits/s speed=0.281x    frame=  436 fps= 15 q=34.0 size=    5392kB time=00:00:08.06 bitrate=5479.3kbits/s speed=0.284x    frame=  445 fps= 15 q=34.0 size=    5392kB time=00:00:08.24 bitrate=5359.7kbits/s speed=0.283x    frame=  456 fps= 15 q=34.0 size=    5392kB time=00:00:08.46 bitrate=5220.3kbits/s speed=0.286x    frame=  465 fps= 15 q=34.0 size=    5392kB time=00:00:08.64 bitrate=5111.6kbits/s speed=0.285x    frame=  475 fps= 15 q=34.0 size=    5392kB time=00:00:08.84 bitrate=4995.9kbits/s speed=0.287x    frame=  483 fps= 15 q=34.0 size=    5392kB time=00:00:09.00 bitrate=4907.1kbits/s speed=0.283x    frame=  486 fps= 15 q=34.0 size=    5392kB time=00:00:09.06 bitrate=4874.6kbits/s speed=0.278x    frame=  491 fps= 15 q=34.0 size=    5392kB time=00:00:09.16 bitrate=4821.4kbits/s speed=0.276x    frame=  496 fps= 15 q=34.0 size=    5392kB time=00:00:09.26 bitrate=4769.4kbits/s speed=0.274x    frame=  500 fps= 15 q=34.0 size=    5392kB time=00:00:09.34 bitrate=4728.5kbits/s speed=0.272x    frame=  500 fps= 14 q=-1.0 Lsize=   11155kB time=00:00:09.94 bitrate=9192.0kbits/s speed=0.279x    
video:11150kB audio:0kB subtitle:0kB other streams:0kB global headers:0kB muxing overhead: 0.040884%
bench: utime=110.980s
bench: maxrss=1349696kB
[libx264 @ 0x44b2120] frame I:3     Avg QP:30.02  size:323194
[libx264 @ 0x44b2120] frame P:183   Avg QP:31.94  size: 33972
[libx264 @ 0x44b2120] frame B:314   Avg QP:33.86  size: 13473
[libx264 @ 0x44b2120] consecutive B-frames: 16.0%  0.8%  0.0% 83.2%
[libx264 @ 0x44b2120] mb I  I16..4: 31.6% 53.9% 14.5%
[libx264 @ 0x44b2120] mb P  I16..4:  2.1%  2.1%  0.0%  P16..4: 23.5%  3.2%  0.3%  0.0%  0.0%    skip:68.8%
[libx264 @ 0x44b2120] mb B  I16..4:  0.3%  0.3%  0.0%  B16..8: 13.5%  0.5%  0.0%  direct: 9.1%  skip:76.4%  L0:35.9% L1:63.6% BI: 0.5%
[libx264 @ 0x44b2120] final ratefactor: 26.05
[libx264 @ 0x44b2120] 8x8 transform intra:50.6% inter:66.0%
[libx264 @ 0x44b2120] coded y,uvDC,uvAC intra: 43.4% 36.3% 14.2% inter: 4.9% 3.8% 0.0%
[libx264 @ 0x44b2120] i16 v,h,dc,p: 40% 31% 21%  8%
[libx264 @ 0x44b2120] i8 v,h,dc,ddl,ddr,vr,hd,vl,hu: 11% 17% 50%  3%  3%  3%  5%  3%  5%
[libx264 @ 0x44b2120] i4 v,h,dc,ddl,ddr,vr,hd,vl,hu: 18% 27% 11%  7%  7%  7% 10%  6%  9%
[libx264 @ 0x44b2120] i8c dc,h,v,p: 71% 13% 14%  1%
[libx264 @ 0x44b2120] Weighted P-Frames: Y:0.5% UV:0.0%
[libx264 @ 0x44b2120] ref P L0: 77.8% 22.2%
[libx264 @ 0x44b2120] ref B L0: 90.1%  9.9%
[libx264 @ 0x44b2120] ref B L1: 96.3%  3.7%
[libx264 @ 0x44b2120] kb/s:9133.51
